<svg xmlns="http://www.w3.org/2000/svg" xmlns:xlink="http://www.w3.org/1999/xlink" id="Layer_1" x="0px" y="0px" viewBox="0 0 1080 822.1" style="enable-background:new 0 0 1080 822.1;" xml:space="preserve"><style type="text/css">	.st0{fill:#F0624B;}	.st1{fill:#F1634C;}</style><path class="st0" d="M768.5,302c5.7-12.7,7.8-25.8,5.1-34.3s-5.6-12.6-4.1-19.2c1.5-6.5,24.6-13.2,34.3-15.9 c15.7-4.3,29.6-7.5,41.9-8.3c5.8-0.4,7.4,2.8,3.7,5.7c-5.9,4.6-18.8,14.6-32.9,23.9C795.2,268,799.2,286.7,768.5,302z M745.6,280.8 c-1.6,13-17.1,39-17.1,39s-1.1-4.4-1.8-6.9c-0.7-2.5-2.6-3-2.6-3s-5.9,23.1-13.1,28.7c-16,12.3-26.1,7.4-42,42.1 c-3.3,7.3-0.5,22.7-2.9,26.1c1.2,3.8,2.5,10.6,0.1,19.9c-7.9-2.4-22.7-3.8-22.7-3.8s11.3,5.6,18.5,9.3c-0.7,3.8-11.3,26.4-14,28.7 c-11.9-4.5-26.4-7.3-26.4-7.3s10.3,6.5,21.6,13c-1.7,4.3-15.9,21.6-19.3,23.4c-9.9-8.7-23.4-13.5-23.4-13.5s7.1,7.3,19.9,18.6 c-14,10.8-31.1,7.5-44.1,4.8c-1.4-0.3-5.9-9.1-5.9-9.1s-3.8,8.7-13,2.4c-5.8-4-11.2-11.6-10.9-19.5c0.3-8.4,6.8-19.3,27.2-30.2 c12.3-6.7,18.2-21.4,17.3-38.5c0.8-5.1,4.7-32,7-44.3c2.9-15.2,10-44.8,23.1-63c10.9-15.1,26.8-22.3,54.7-31.5 c31.1-10.3,50.1-10.8,66.5-12.5C742.4,253.5,747.7,263.4,745.6,280.8z M679.1,307.6c7.7-8.1,10.5-18.2,10.5-18.2s-25.5,5.4-36,7 c-18.2,2.8-20.3,7.5-26.7,16.1c-5,6.7-5.5,11.6-3.6,22.4c0.6,3.3,2.8,4.9,4.8,8.4c2.2,4,2.7,11.5,4,11.4c2-0.2,9.5-8,18-10.3 C664.6,340.2,668,319.2,679.1,307.6z M645.1,342.9c-7.2,0-13-6.7-13-14.9c0-8.2,6-13.3,13-14.9c13-2.9,11.5,5.6,13,14.9 C659.4,336.1,652.3,342.9,645.1,342.9z M643.7,331.9c0-0.6-0.5-1.1-1.1-1.1c-0.6,0-1.1,0.5-1.1,1.1c0,0.6,0.5,1.1,1.1,1.1 C643.2,333,643.7,332.5,643.7,331.9z M648.6,332.1c0-1-0.6-1.8-1.3-1.8s-1.3,0.8-1.3,1.8c0,1,0.6,1.8,1.3,1.8S648.6,333,648.6,332.1 z M648.6,326.9c0-2.1-1.4-3.9-3.1-3.9c-1.7,0-3.1,1.7-3.1,3.9c0,2.1,1.4,3.9,3.1,3.9C647.2,330.8,648.6,329.1,648.6,326.9z  M310.6,302c-5.7-12.7-7.8-25.8-5.1-34.3c2.6-8.5,5.6-12.6,4.1-19.2c-1.5-6.5-24.6-13.2-34.3-15.9c-15.7-4.3-29.6-7.5-41.9-8.3 c-5.8-0.4-7.4,2.8-3.7,5.7c5.9,4.6,18.8,14.6,32.9,23.9C283.9,268,279.9,286.7,310.6,302z M336.7,253.5c16.3,1.7,35.4,2.3,66.5,12.5 c27.9,9.2,43.8,16.4,54.7,31.5c13.2,18.3,20.2,47.8,23.1,63c2.4,12.3,6.2,39.2,7,44.3c-0.9,17.2,5,31.9,17.3,38.5 c20.3,11,26.9,21.9,27.2,30.2c0.3,7.9-5.1,15.5-10.9,19.5c-9.2,6.3-13-2.4-13-2.4s-4.5,8.8-5.9,9.1c-13,2.7-30.2,6-44.1-4.8 c12.8-11.3,19.9-18.6,19.9-18.6s-13.4,4.8-23.4,13.5c-3.4-1.8-17.6-19.1-19.3-23.4c11.3-6.5,21.6-13,21.6-13s-14.5,2.8-26.4,7.3 c-2.7-2.3-13.3-24.9-14-28.7c7.2-3.7,18.5-9.3,18.5-9.3s-14.8,1.4-22.7,3.8c-2.4-9.3-1.2-16.1,0.1-19.9c-2.4-3.4,0.4-18.8-2.9-26.1 c-15.9-34.7-26-29.8-42-42.1c-7.2-5.6-13.1-28.7-13.1-28.7s-1.9,0.5-2.6,3c-0.7,2.5-1.8,6.9-1.8,6.9s-15.5-26-17.1-39 C331.4,263.4,336.7,253.5,336.7,253.5z M429,344.3c8.4,2.4,16,10.1,18,10.3c1.3,0.1,1.8-7.4,4-11.4c1.9-3.5,4.2-5.1,4.8-8.4 c1.9-10.8,1.3-15.7-3.6-22.4c-6.4-8.6-8.5-13.3-26.7-16.1c-10.4-1.6-36-7-36-7s2.8,10.1,10.5,18.2 C411.1,319.2,414.5,340.2,429,344.3z M421,328c1.5-9.3,0-17.8,13-14.9c7,1.6,13,6.7,13,14.9c0,8.2-5.8,14.9-13,14.9 C426.8,342.9,419.7,336.1,421,328z M436.5,333c0.6,0,1.1-0.5,1.1-1.1c0-0.6-0.5-1.1-1.1-1.1c-0.6,0-1.1,0.5-1.1,1.1 C435.4,332.5,435.9,333,436.5,333z M431.8,333.8c0.7,0,1.3-0.8,1.3-1.8c0-1-0.6-1.8-1.3-1.8s-1.3,0.8-1.3,1.8 C430.5,333,431.1,333.8,431.8,333.8z M433.6,330.8c1.7,0,3.1-1.7,3.1-3.9c0-2.1-1.4-3.9-3.1-3.9c-1.7,0-3.1,1.7-3.1,3.9 C430.5,329.1,431.9,330.8,433.6,330.8z M579.5,406.7c-3.5-5.6-10.4-6.8-20.8-7.7c-9.4-0.8-19.2-0.7-19.2-0.7s-9.8,0-19.2,0.7 c-10.3,0.8-17.3,2.1-20.8,7.7c-4,6.4-5.8,19.9,16.9,34.9c1.1,0.8,1.8-2.4-1.6-5.7c-5.4-5.2-8.2-22-4.8-21.1 c8.2,2.3,16.9,16.9,13.4,27.7c-0.9,2.8,5.7,8,8.6,9.2c4.6,1.8,7.4,1.8,7.4,1.8s2.8,0,7.4-1.8c2.9-1.1,9.5-6.3,8.6-9.2 c-3.5-10.9,5.3-25.5,13.4-27.7c3.4-0.9,0.5,15.9-4.8,21.1c-3.4,3.3-2.7,6.4-1.6,5.7C585.3,426.7,583.5,413.1,579.5,406.7z  M839.8,262.9c1.5,14.8-1.5,29-4.3,31.1c-0.1-5-1.4-8.8-2.9-11.8c-2.2-4.3-5-6.1-5-6.1s3,12.6-0.4,50.5c-2.2,24-16.8,48.1-16.8,48.1 s0.4-9.8-3.5-21.8c-3.2-10.1-10.8-16.7-10.8-16.7s6.1,21,6.9,30.1c6.4,67.7-46.7,103.4-46.7,103.4s1.3-8.2-1.6-22.9 c-2.2-11.4-10.1-17.9-10.1-17.9c4,8.1,6.5,27,0.9,38.9c-4.9,10.3-11.4,14.8-22.1,25.5c-11.9,11.8-38.8,23-38.8,23s1.6-15.4-0.6-18.4 c0.2,3.1-7.1,21.1-16,25.4c-8.2,3.9-20.1,12.8-25.7,22.9c1-9.8,1.9-18.6,3.5-26.4c-12.2,17.3-31.7,43-51.5,55.8 c1.4-11.9,4.4-18.7,0-27.3c-2.5,22.1-27.4,43.4-27.4,43.4s5.3-24,2.8-36.2c-17.6,48.3-30.2,57.1-30.2,57.1s-12.6-8.8-30.2-57.1 c-2.6,12.2,2.8,36.2,2.8,36.2s-24.9-21.3-27.4-43.4c-4.4,8.5-1.4,15.3,0,27.3c-19.8-12.8-39.4-38.5-51.5-55.8 c1.5,7.8,2.4,16.6,3.5,26.4c-5.7-10.1-17.5-19-25.7-22.9c-8.9-4.3-16.2-22.3-16-25.4c-2.1,3-0.6,18.4-0.6,18.4s-26.9-11.2-38.8-23 c-10.8-10.7-17.2-15.2-22.1-25.5c-5.7-11.9-3.1-30.8,0.9-38.9c0,0-7.9,6.6-10.1,17.9c-2.8,14.8-1.6,22.9-1.6,22.9 S269.6,434,276,366.3c0.9-9,6.9-30.1,6.9-30.1s-7.5,6.6-10.8,16.7c-3.9,12-3.5,21.8-3.5,21.8s-14.7-24.2-16.8-48.1 c-3.4-37.9-0.4-50.5-0.4-50.5s-2.8,1.8-5,6.1c-1.5,3-2.8,6.8-2.9,11.8c-2.8-2.1-5.8-16.3-4.3-31.1c1.2-11.2,4.8-13.3,4.8-13.3 s17.7,9.5,26.5,25.5c17.4,31.6,43.9,37.6,51.4,40c0.9-6.8-11.9-28.9-9-44.5c2.5-13.7,10.8-14.4,3.6-27.2 c-4.3-7.7-22.3-13.9-38.9-18.2c-4.1-0.9-12.2-2.7-14.9-3.3c-10.2-2.3-16.7-2.7-21.7-9c-4.6-5.8-3.4-11.6-3.4-11.6s10.1,4.3,20.5-2.5 c13.5-8.7-2.9-23.2,20.2-43.9c14.3-12.8,33-10.1,33-10.1s-11.3-7.4-24.6-6.8c-12.3,0.6-21.6,3-34.8,19c7-32.4,22.8-43.9,39.3-52.7 c15.3-8.2,39.9-10.7,56.5-9.3c0,0-6.2-8.3-17.3-11.9c-15.2-4.9-25.1-3.6-32.7-0.9c5.7-10.9,26-20.9,53.9-22.6 c33-2,60.7,9.6,60.7,9.6s1.9-5.6-9.2-12.3c-13.8-8.3-31.7-9.6-39.1-7c4.9-6.2,25.5-16.6,63-10.8c23.1,3.6,33,7.7,33,7.7 s-0.4-6.5-5.8-10.8c-5.2-4.1-11.8-6-17.5-7c3.7-2.7,25.1-4.9,46-6.4c26.3-1.9,57-1.9,57-1.9s30.7,0,57,1.9c20.8,1.5,42.2,3.7,46,6.4 c-5.7,0.9-12.3,2.9-17.5,7c-5.5,4.3-5.8,10.8-5.8,10.8s10-4.2,33-7.7c37.4-5.8,58.1,4.5,63,10.8c-7.5-2.6-25.3-1.3-39.1,7 c-11.1,6.7-9.2,12.3-9.2,12.3s27.7-11.6,60.7-9.6c27.9,1.7,48.3,11.7,53.9,22.6c-7.7-2.7-17.6-4.1-32.7,0.9 C737.5,86.8,731.3,95,731.3,95c16.6-1.4,41.2,1.1,56.5,9.3c16.4,8.8,32.2,20.3,39.3,52.7c-13.2-16-22.5-18.5-34.8-19 c-13.3-0.6-24.6,6.8-24.6,6.8s18.7-2.7,33,10.1c23.1,20.7,6.8,35.2,20.2,43.9c10.5,6.7,20.5,2.5,20.5,2.5s1.2,5.8-3.4,11.6 c-5,6.4-11.5,6.7-21.7,9c-2.6,0.6-10.8,2.4-14.9,3.3c-16.6,4.2-34.5,10.4-38.9,18.2c-7.2,12.9,1.1,13.5,3.6,27.2 c2.8,15.6-10,37.7-9,44.5c7.5-2.4,34-8.4,51.4-40c8.8-16,26.5-25.5,26.5-25.5S838.7,251.7,839.8,262.9z M580.9,175.6l0.7,0 c2.4-10.1,4.4-20,6.6-29.9c2.3-9.8,3.7-19.9,6.8-29.5c2.8-9.6,7.3-18.7,12.9-27.1c5.6-8.4,12.2-16.3,19.9-23l-0.4-0.5 c-8.4,6.1-15.7,13.4-22.2,21.6c-6.3,8.2-11.6,17.5-15.2,27.3c-3.7,9.7-6.9,19.7-8.3,30C580.2,154.8,579.6,165.2,580.9,175.6z  M560.9,320.3l0.7,0.1c4.3-19,9.3-37.7,15.3-56c6-18.3,12.4-36.5,21.3-53.6c9-16.9,21.1-32.2,34.7-45.8 c13.6-13.7,28.7-26.1,45.1-36.5l-0.3-0.6c-16.9,9.7-32.6,21.5-47.1,34.7c-14.3,13.3-27.1,28.5-37.1,45.6 c-9.7,17.1-17.7,35.3-23,54.2c-2.6,9.5-4.9,19-6.5,28.7C562.4,300.8,561.2,310.5,560.9,320.3z M451.5,66.2 c7.7,6.7,14.3,14.6,19.9,23c5.6,8.4,10,17.5,12.9,27.1c3,9.6,4.5,19.6,6.8,29.5c2.2,9.9,4.2,19.8,6.6,29.9l0.7,0 c1.2-10.4,0.6-20.8-0.7-31.1c-1.4-10.3-4.6-20.3-8.3-30c-3.6-9.8-8.9-19.1-15.2-27.3c-6.5-8.1-13.8-15.5-22.2-21.6L451.5,66.2z  M401.1,128.4c16.4,10.4,31.5,22.8,45.1,36.5c13.7,13.6,25.7,29,34.7,45.8c8.8,17.1,15.3,35.3,21.3,53.6c6,18.3,11,37,15.3,56 l0.7-0.1c-0.3-9.8-1.5-19.5-3.2-29.2c-1.6-9.7-3.9-19.2-6.5-28.7c-5.3-18.9-13.3-37.1-23-54.2c-10-17.1-22.8-32.3-37.1-45.6 c-14.4-13.2-30.1-25-47.1-34.7L401.1,128.4z M329.6,178.7c12.5,2.9,24.6,7.2,35.6,13.4c11.2,6,20.5,14.7,30,23.1 c9.5,8.5,18.5,17.6,27.6,26.9l0.5-0.4c-3.1-5.8-6.7-11.3-10.7-16.5c-3.9-5.2-8.3-10.2-12.9-14.9c-9.2-9.4-20.3-17.1-32.2-22.9 c-11.8-5.9-24.6-9.7-37.4-12c-12.9-2.1-26-2.8-39-1.4l0.1,0.7C304.2,174.3,317.2,175.9,329.6,178.7z M564.6,525 c-4.3,1.2-8.4,1.2-12.6,1.5c-4.2,0.1-8.3,0.1-12.5,0c0,0,0,0,0,0c0,0,0,0,0,0c-4.2,0-8.3,0.1-12.5,0c-4.2-0.2-8.3-0.2-12.6-1.5 c1.4,1.9,3.4,3.1,5.4,4.1c2.1,1,4.2,1.8,6.4,2.3c4.4,1.2,8.8,1.6,13.3,1.7c0,0,0,0,0,0s0,0,0,0c4.4,0,8.9-0.5,13.3-1.7 c2.2-0.5,4.3-1.4,6.4-2.3C561.2,528.1,563.2,526.9,564.6,525z M748.8,245.9c-18.7,0.3-29.1,1.3-48.6,4.9c-29,5.4-40.5,10.7-62,20.3 c-20.3,9.1-33.5,25.4-39.5,49.3c-1.1,4.2-2.2,8.9-3.3,14c0,0.1,0,0.2-0.1,0.3c-0.2,1.1-0.5,2.1-0.7,3.2c-0.1,0.3-0.1,0.5-0.2,0.8 c-0.2,1-0.4,2-0.6,3c0,0.2-0.1,0.4-0.1,0.6c-0.3,1.2-0.5,2.4-0.8,3.7c0,0.1-0.1,0.3-0.1,0.4c-0.2,1.1-0.5,2.2-0.7,3.4 c-5,24.2-9.3,48.8-9.3,48.8s-2.1-2.6-5.6-3.7c3.3-22.7-0.7-40.1-0.7-40.1s-2.9,35.3-5.1,38.7c-4-0.7-6.2-0.5-10.1-0.8 c-4.4-0.3-7.2-0.3-11-0.5c0.5-5.4-1.6-9.5-1.6-9.5s-1.7,9.4-2.4,9.5c-3.3,0.1-6.8-0.1-6.8-0.1l0,0c0,0-3.5,0.1-6.8,0.1 c-0.7,0-2.4-9.5-2.4-9.5s-2.2,4.1-1.6,9.5c-3.8,0.2-6.6,0.2-11,0.5c-3.9,0.3-6,0-10.1,0.8c-2.2-3.4-5.1-38.7-5.1-38.7 s-4,17.3-0.7,40.1c-3.5,1.2-5.6,3.7-5.6,3.7s-4.3-24.5-9.3-48.8c-0.2-1.1-0.5-2.2-0.7-3.4c0-0.1-0.1-0.3-0.1-0.4 c-0.3-1.2-0.5-2.4-0.8-3.7c0-0.2-0.1-0.4-0.1-0.6c-0.2-1-0.4-2-0.6-3c-0.1-0.3-0.1-0.5-0.2-0.8c-0.2-1.1-0.5-2.2-0.7-3.2 c0-0.1,0-0.2-0.1-0.3c-1.1-5-2.2-9.7-3.3-14c-6-23.9-19.2-40.2-39.5-49.3c-21.5-9.6-33-15-62-20.3c-19.6-3.6-29.9-4.6-48.6-4.9 c-10.4,25.9-4.8,50.7,12.1,76.2c7.2,10.9,9.5,21.1,18.7,31.3c1.8,2,18.6,7,21.9,10c3.3,3,21.1,46,19.7,59.8c0.5,1.9,1,3.9,1.6,6 c-4.6,1.3-13.8,4-22.9,7c-21.9,7.3-43,17.8-42,18c0,0,25.6-7.2,40.8-11.9c11.6-3.6,21-5.7,26-6.6c2.9,9.3,6.8,19.8,11.9,29.6 c-2.2,0.9-4.9,2-8.3,3.5c-14.8,6.5-36,21-36,21s17.5-6.9,38.1-14.1c4-1.4,7.3-2.5,10.1-3.4c2.5,4.1,5.2,8,8.2,11.5 c2.9,3.4,7.1,8.8,13.1,14.7c-1.7,1.1-3.4,2.3-4.6,3.2c-4.8,3.7-19.5,17.6-19.5,17.6s14.9-8.2,20.6-11.6c2.8-1.7,5.6-3.5,8-5.1 c6.5,5.7,14.8,11.5,25.5,16.1c13.6,5.9,23.3-4,35.5-8.7c12.8-4.9,22.8-8.6,22.8-8.6l7.8-0.8l7.8,0.8c0,0,9.9,3.6,22.8,8.6 c12.2,4.7,21.9,14.7,35.5,8.7c10.7-4.7,19-10.5,25.5-16.1c2.4,1.6,5.1,3.3,8,5.1c5.6,3.5,20.6,11.6,20.6,11.6s-14.7-13.9-19.5-17.6 c-1.2-0.9-2.9-2.1-4.6-3.2c6-5.9,10.2-11.3,13.1-14.7c3-3.4,5.7-7.3,8.2-11.5c2.8,0.9,6.1,2,10.1,3.4c20.6,7.2,38.1,14.1,38.1,14.1 s-21.2-14.5-36-21c-3.4-1.5-6.1-2.6-8.3-3.5c5-9.8,9-20.3,11.9-29.6c5,1,14.4,3,26,6.6c15.2,4.7,40.8,11.9,40.8,11.9 c1-0.2-20.1-10.7-42-18c-9.1-3.1-18.3-5.7-22.9-7c0.6-2.1,1.1-4.2,1.6-6c-1.4-13.8,16.5-56.9,19.7-59.8c3.3-3,20.1-8,21.9-10 c9.2-10.3,11.5-20.5,18.7-31.3C753.6,296.5,759.2,271.8,748.8,245.9z M787.7,174.8l0.1-0.7c-13-1.3-26.1-0.6-39,1.4 c-12.9,2.3-25.6,6.1-37.4,12c-11.9,5.8-23,13.5-32.2,22.9c-4.6,4.7-8.9,9.6-12.9,14.9c-4,5.2-7.6,10.7-10.7,16.5l0.5,0.4 c9.1-9.3,18.1-18.4,27.6-26.9c9.5-8.4,18.9-17.1,30-23.1c11-6.3,23.2-10.6,35.6-13.4C761.9,175.9,774.9,174.3,787.7,174.8z"></path><g>	<path class="st1" d="M55.5,789.8c-8.5,0-15.2-1.8-20.1-5.3s-8.5-8.6-10.6-15.2c-2.1-6.6-3.2-14.2-3.2-22.9v-42  c0-9,1.1-16.7,3.3-23.2c2.2-6.5,6-11.5,11.4-15c5.4-3.5,12.8-5.3,22.1-5.3c9,0,16.1,1.5,21.3,4.5c5.2,3,9,7.2,11.2,12.7  c2.3,5.5,3.4,12,3.4,19.5v7.3h-25v-8.8c0-3.3-0.2-6.2-0.6-8.8c-0.4-2.5-1.4-4.5-2.9-6c-1.5-1.4-3.9-2.2-7.2-2.2  c-3.4,0-5.9,0.9-7.4,2.6c-1.5,1.8-2.5,4-2.9,6.7c-0.4,2.7-0.6,5.7-0.6,8.8V753c0,3.5,0.3,6.7,0.9,9.5c0.6,2.8,1.8,5,3.5,6.5  c1.7,1.6,4.2,2.3,7.4,2.3c3.2,0,5.7-0.8,7.4-2.5c1.8-1.7,3-3.9,3.6-6.7c0.7-2.8,1-6.1,1-9.7V739H59.2v-15.5h35.3V788H77.8  l-1.6-11.3c-1.7,3.8-4.1,7-7.4,9.5C65.5,788.6,61.1,789.8,55.5,789.8z"></path>	<path class="st1" d="M147.1,789.7c-9.2,0-16.5-1.7-21.9-5c-5.4-3.3-9.2-8-11.5-14.2c-2.3-6.1-3.5-13.5-3.5-22.1v-46.8  c0-8.6,1.2-15.9,3.5-22c2.3-6.1,6.2-10.7,11.5-13.9c5.4-3.2,12.7-4.8,21.9-4.8c9.3,0,16.7,1.6,22.1,4.9s9.3,7.9,11.6,13.9  c2.3,6,3.5,13.4,3.5,21.9v46.8c0,8.6-1.2,15.9-3.5,22.1c-2.3,6.1-6.2,10.9-11.6,14.2S156.4,789.7,147.1,789.7z M147.1,771.2  c3.3,0,5.7-0.7,7.3-2.2c1.6-1.5,2.6-3.5,3.1-6c0.5-2.5,0.8-5.2,0.8-8.1v-59.4c0-2.9-0.3-5.6-0.8-8.1c-0.5-2.5-1.5-4.5-3.1-6  c-1.6-1.5-4-2.2-7.3-2.2c-3.1,0-5.4,0.8-7,2.2c-1.5,1.5-2.6,3.5-3.1,6c-0.5,2.5-0.8,5.2-0.8,8.1v59.4c0,2.9,0.2,5.6,0.7,8.1  c0.5,2.5,1.5,4.5,3,6C141.5,770.5,143.9,771.2,147.1,771.2z"></path>	<path class="st1" d="M201.3,788V662.4H232c10.6,0,18.9,1.4,24.9,4.1c5.9,2.7,10.2,7,12.6,12.9c2.5,5.8,3.7,13.3,3.7,22.4v45.7  c0,9.3-1.2,16.9-3.7,22.9c-2.5,6-6.6,10.4-12.5,13.3c-5.8,2.8-14,4.3-24.4,4.3H201.3z M226.9,770.2h5.4c4.7,0,8.1-0.7,10.2-2.2  c2-1.5,3.3-3.7,3.8-6.7c0.5-2.9,0.8-6.6,0.8-10.9v-51.8c0-4.3-0.3-7.8-1-10.5c-0.7-2.6-2-4.6-4-5.8c-2-1.2-5.3-1.9-9.8-1.9h-5.3  V770.2z"></path>	<path class="st1" d="M325.1,789.7c-9.2,0-16.5-1.7-21.9-5c-5.4-3.3-9.2-8-11.5-14.2c-2.3-6.1-3.5-13.5-3.5-22.1v-46.8  c0-8.6,1.2-15.9,3.5-22c2.3-6.1,6.2-10.7,11.5-13.9c5.4-3.2,12.7-4.8,21.9-4.8c9.3,0,16.7,1.6,22.1,4.9s9.3,7.9,11.6,13.9  c2.3,6,3.5,13.4,3.5,21.9v46.8c0,8.6-1.2,15.9-3.5,22.1c-2.3,6.1-6.2,10.9-11.6,14.2S334.4,789.7,325.1,789.7z M325.1,771.2  c3.3,0,5.7-0.7,7.3-2.2c1.6-1.5,2.6-3.5,3.1-6c0.5-2.5,0.8-5.2,0.8-8.1v-59.4c0-2.9-0.3-5.6-0.8-8.1c-0.5-2.5-1.5-4.5-3.1-6  c-1.6-1.5-4-2.2-7.3-2.2c-3.1,0-5.4,0.8-7,2.2c-1.5,1.5-2.6,3.5-3.1,6c-0.5,2.5-0.8,5.2-0.8,8.1v59.4c0,2.9,0.2,5.6,0.7,8.1  c0.5,2.5,1.5,4.5,3,6C319.6,770.5,321.9,771.2,325.1,771.2z"></path>	<path class="st1" d="M390.2,788V681.5h-19.4v-19.1H435v19.1H416V788H390.2z"></path>	<path class="st1" d="M496.4,788l-16.3-125.5h21.7l8.7,76.7l11-76.6h17.2l11.5,76.4l8.7-76.6h21.4L564.1,788h-21.7l-12.2-79.5  L518.5,788H496.4z"></path>	<path class="st1" d="M594,788V662.4h25.4V788H594z"></path>	<path class="st1" d="M638.7,788V662.4h25.6v108.2h29.4V788H638.7z"></path>	<path class="st1" d="M704.8,788V662.4h30.7c10.6,0,18.9,1.4,24.9,4.1c5.9,2.7,10.2,7,12.6,12.9c2.5,5.8,3.7,13.3,3.7,22.4v45.7  c0,9.3-1.2,16.9-3.7,22.9c-2.5,6-6.6,10.4-12.5,13.3c-5.8,2.8-14,4.3-24.4,4.3H704.8z M730.4,770.2h5.4c4.7,0,8.1-0.7,10.2-2.2  c2-1.5,3.3-3.7,3.8-6.7c0.5-2.9,0.8-6.6,0.8-10.9v-51.8c0-4.3-0.3-7.8-1-10.5c-0.7-2.6-2-4.6-4-5.8c-2-1.2-5.3-1.9-9.8-1.9h-5.3  V770.2z"></path>	<path class="st1" d="M824.8,791.2v-18c3,0,5.5-0.2,7.6-0.5c2.1-0.4,3.7-1,4.8-2c1.1-1,2-2.4,2.5-4.3c0.5-1.9,0.8-4.3,0.8-7.3v-96.7  H866v97.8c0,6.9-0.8,12.7-2.5,17.3c-1.7,4.6-4.6,8-8.8,10.3c-4.2,2.3-10,3.4-17.6,3.4H824.8z"></path>	<path class="st1" d="M878.7,788L903,662.4h28.4L955.6,788h-23.7l-4.5-27.6h-19.8l-4.8,27.6H878.7z M909.9,744.7h15l-7.6-50.7  L909.9,744.7z"></path>	<path class="st1" d="M967.8,788l2.2-125.5h27.1l15.5,79.2l16.6-79.2h26.2l2.2,125.5H1039l-2-85.1l-16,85.1h-16l-16.7-85.7  l-1.7,85.7H967.8z"></path></g></svg>